<?xml version="1.0" encoding="utf-8"?>
<!-- Generator: Adobe Illustrator 19.0.0, SVG Export Plug-In . SVG Version: 6.00 Build 0)  -->
<svg version="1.1" id="Layer_1" xmlns="http://www.w3.org/2000/svg" xmlns:xlink="http://www.w3.org/1999/xlink" x="0px" y="0px"
	 viewBox="-335 617 48 48" style="enable-background:new -335 617 48 48;" xml:space="preserve">
<style type="text/css">
	.st0{fill:#1764E0;}
</style>
<g id="Layer_2">
</g>
<polygon class="st0" points="-317.8,639.3 -303.3,639.3 -297.1,628 -323.3,628 "/>
<path class="st0" d="M-300.7,653.8c-1,0-1.8,0.3-2.5,1s-1,1.5-1,2.5s0.3,1.9,1,2.6c0.7,0.7,1.5,1,2.5,1s1.9-0.4,2.6-1
	c0.7-0.7,1-1.6,1-2.6s-0.4-1.8-1-2.5C-298.8,654.1-299.7,653.8-300.7,653.8z"/>
<path class="st0" d="M-320.7,653.8c-1,0-1.8,0.3-2.5,1s-1,1.5-1,2.5s0.3,1.9,1,2.6c0.7,0.7,1.5,1,2.5,1s1.9-0.4,2.6-1
	c0.7-0.7,1-1.6,1-2.6s-0.4-1.8-1-2.5C-318.8,654.1-319.7,653.8-320.7,653.8z"/>
<path class="st0" d="M-295.3,625h-29.5l-1.8-4h-5.9v3h3.9l7.6,16.1l-3.2,5.9c-0.6,1.2-0.6,2.2,0,3.2c0.6,0.9,1.6,1.4,3,1.4h24.1v-3
	h-24.5l2.8-5.2h15.1c0.7,0,1.3-0.2,1.9-0.6c0.6-0.4,1.1-0.9,1.4-1.5l6.8-12.2c0.4-0.7,0.4-1.4,0-2.1C-294,625.3-294.5,625-295.3,625
	z M-303.3,639.3h-14.4l-5.5-11.4h26.2L-303.3,639.3z"/>
</svg>
